<?xml version="1.0" encoding="utf-8"?>
<!-- Generator: Adobe Illustrator 16.0.3, SVG Export Plug-In . SVG Version: 6.00 Build 0)  -->
<!DOCTYPE svg PUBLIC "-//W3C//DTD SVG 1.1//EN" "http://www.w3.org/Graphics/SVG/1.1/DTD/svg11.dtd">
<svg version="1.1" id="Layer_1" xmlns="http://www.w3.org/2000/svg" xmlns:xlink="http://www.w3.org/1999/xlink" x="0px" y="0px"
	 width="157.475px" height="115.305px" viewBox="0 0 157.475 115.305" enable-background="new 0 0 157.475 115.305"
	 xml:space="preserve">
<path fill="#FFFFFF" stroke="#FFFFFF" stroke-miterlimit="10" d="M152,92.979c0,0-1.975-112.007-89.587-84.484
	C-14,32.5,0.857,94.384,22,106c32.248,17.718,90.119-27.93,90.119-27.93S139.284,66.268,152,92.979z"/>
<g>
	<path fill="none" stroke="#00192A" stroke-width="3" stroke-miterlimit="10" d="M46.777,46.149c0,0-5.454,4.498-6.51,0.848
		c-1.056-3.65,9.092-7.499,9.092-7.499s6.779,20.073-0.069,29.329"/>
	<polyline fill="none" stroke="#00192A" stroke-width="3" stroke-linejoin="round" stroke-miterlimit="10" points="51.7,49.392 
		74.906,61.689 72.629,36.039 51.16,46.426 	"/>
	<path fill="none" stroke="#00192A" stroke-width="3" stroke-linejoin="round" stroke-miterlimit="10" d="M94.608,50.742
		L74.523,37.224L94.608,50.742z"/>
	<path fill="none" stroke="#00192A" stroke-width="3" stroke-linejoin="round" stroke-miterlimit="10" d="M74.906,61.689
		L94.234,50.97L74.906,61.689z"/>
	<circle fill="none" stroke="#00192A" stroke-width="3" stroke-miterlimit="10" cx="93.109" cy="49.795" r="13.319"/>
	<circle fill="none" stroke="#00192A" stroke-width="3" stroke-miterlimit="10" cx="49.341" cy="68.299" r="13.319"/>
	<path stroke="#00192A" stroke-width="3" stroke-linejoin="round" stroke-miterlimit="10" d="M76.213,29.751
		c0,0-11.113,4.828-10.71,5.168c0.403,0.341,7.126,1.119,7.126,1.119S75.627,31.672,76.213,29.751z"/>
	<circle fill="none" stroke="#00192A" stroke-width="2" stroke-miterlimit="10" cx="74.906" cy="61.69" r="3.917"/>
	<path stroke="#00192A" stroke-miterlimit="10" d="M77.188,60.283c0.751,1.229,0.362,2.838-0.87,3.59
		c-1.23,0.75-2.838,0.361-3.589-0.869c-0.752-1.232-0.362-2.84,0.868-3.592C74.829,58.66,76.438,59.049,77.188,60.283z"/>
</g>
</svg>
