<?xml version="1.0" encoding="utf-8"?>
<!-- Generator: Adobe Illustrator 16.0.3, SVG Export Plug-In . SVG Version: 6.00 Build 0)  -->
<!DOCTYPE svg PUBLIC "-//W3C//DTD SVG 1.1//EN" "http://www.w3.org/Graphics/SVG/1.1/DTD/svg11.dtd">
<svg version="1.1" id="Layer_1" xmlns="http://www.w3.org/2000/svg" xmlns:xlink="http://www.w3.org/1999/xlink" x="0px" y="0px"
	 width="147.729px" height="165.306px" viewBox="0 0 147.729 165.306" enable-background="new 0 0 147.729 165.306"
	 xml:space="preserve">
<path fill="#FFFFFF" stroke="#FFFFFF" stroke-miterlimit="10" d="M16.106,158.784c0,0-32.49-80.572,11.922-129.588
	C71.102-18.343,146.803,6.594,142.54,49.169c-4.95,49.444-62.228,67.065-102.595,67.178
	C39.945,116.348,19.547,117.812,16.106,158.784z"/>
<g>
	<path d="M55.512,93.361c1.866-0.928,1.271-2.576,1.271-2.576L45.606,62.899c0,0,2.848-2.323,1.379-5.987l-4.323-10.789
		c0,0-1.353-0.753-1.676,0.794l4.066,10.572c0,0-0.893,1.514-2.081,0.792c-0.076-0.046-4.239-10.465-4.239-10.465
		s-1.101-1.567-2.239,0.307l4.109,10.979c0,0-0.699,1.779-1.881,0.769l-4.202-10.483c0,0-1.589-1.607-2.179,0.755l4.468,11.439
		c0,0,2.028,3.441,4.37,3.092l11.243,27.387C52.422,92.061,53.69,94.27,55.512,93.361z"/>
	<circle fill="none" stroke="#000000" stroke-width="4" stroke-miterlimit="10" cx="77.151" cy="58.347" r="21.984"/>
	<circle fill="none" stroke="#000000" stroke-width="2" stroke-miterlimit="10" cx="77.437" cy="58.469" r="14.309"/>
	<path d="M120.321,65.555c-0.261,4.066-4.102,1.408-4.102,1.408l-6.935-17.301c-2.688,0.368-4.319-2.522-4.319-2.522
		s-7.962-17.362-7.436-20.763c1.483-9.569,5.425-4.182,5.425-4.182L120.321,65.555z"/>
</g>
</svg>
