<?xml version="1.0" encoding="utf-8"?>
<!-- Generator: Adobe Illustrator 16.0.3, SVG Export Plug-In . SVG Version: 6.00 Build 0)  -->
<!DOCTYPE svg PUBLIC "-//W3C//DTD SVG 1.1//EN" "http://www.w3.org/Graphics/SVG/1.1/DTD/svg11.dtd">
<svg version="1.1" id="Layer_1" xmlns="http://www.w3.org/2000/svg" xmlns:xlink="http://www.w3.org/1999/xlink" x="0px" y="0px"
	 width="151.542px" height="109.796px" viewBox="0 0 151.542 109.796" enable-background="new 0 0 151.542 109.796"
	 xml:space="preserve">
<path fill="#FFFFFF" stroke="#FFFFFF" stroke-miterlimit="10" d="M4.274,67.035c0,0,14.521-12.984,26.564-6.316
	c12.043,6.67,21.43,38.736,59.607,44.227c38.99,5.609,55.554-21.445,55.859-42.254C146.674,37.603,109.52-5.757,56.19,8.814
	C12.495,20.753,4.274,67.035,4.274,67.035z"/>
<g>
	<path d="M74.568,29.683c0,0-4.104-1.053-7.381,2.279c-5.233,5.32-18.347,16.373-11.251,22.471
		c5.312,4.564,12.438-1.084,12.438-1.084s-0.796,4.493,3.823,6.561c3.924,1.756,6.421-0.535,6.421-0.535l6.302,4.72
		c0,0-1.22,3.263,1.353,6.326c2.837,3.374,6.875,1.853,6.875,1.853s-3.073,10.792,3.603,13.004
		c6.675,2.211,9.801-3.992,16.899-16.445c3.352-5.878,0.983-9.093,0.983-9.093s4.034-5.104-1.169-9.001c0,0-3.758-3.886-8.552,1.684
		L84.204,36.695c0,0,3.644-5.141-1.012-8.656C78.271,24.324,74.568,29.683,74.568,29.683z"/>
	<rect x="70.308" y="34.901" transform="matrix(0.8 0.6 -0.6 0.8 39.0022 -35.204)" fill="#FFFFFF" width="3.999" height="12"/>
	
		<rect x="66.307" y="38.903" transform="matrix(0.8002 0.5997 -0.5997 0.8002 38.9721 -35.1903)" fill="#FFFFFF" width="12" height="3.997"/>
	<circle fill="#FFFFFF" cx="74.965" cy="54.45" r="3.75"/>
	<circle fill="#FFFFFF" cx="90.97" cy="66.441" r="3.751"/>
	<path fill="#FFFFFF" stroke="#FFFFFF" stroke-miterlimit="10" d="M102.797,69.418c-0.537,0.722-1.559,0.865-2.275,0.327
		c-0.715-0.538-0.863-1.557-0.326-2.273c0.539-0.719,1.557-0.866,2.275-0.327C103.189,67.682,103.335,68.7,102.797,69.418z"/>
	<path fill="#FFFFFF" stroke="#FFFFFF" stroke-miterlimit="10" d="M109.797,68.416c-0.538,0.718-1.558,0.864-2.275,0.324
		c-0.718-0.535-0.869-1.556-0.327-2.273c0.537-0.717,1.556-0.863,2.274-0.328C110.188,66.679,110.334,67.697,109.797,68.416z"/>
	<path fill="#FFFFFF" stroke="#FFFFFF" stroke-miterlimit="10" d="M108.792,61.415c-0.537,0.722-1.557,0.865-2.274,0.327
		c-0.719-0.538-0.867-1.557-0.325-2.275c0.537-0.719,1.555-0.863,2.275-0.323C109.185,59.68,109.331,60.698,108.792,61.415z"/>
	<circle fill="#FFFFFF" stroke="#FFFFFF" stroke-miterlimit="10" cx="100.492" cy="61.445" r="1.625"/>
	<polygon fill="#FFFFFF" points="88.113,51.493 87.514,52.293 89.946,53.493 	"/>
</g>
</svg>
