<?xml version="1.0" encoding="utf-8"?>
<!-- Generator: Adobe Illustrator 16.0.3, SVG Export Plug-In . SVG Version: 6.00 Build 0)  -->
<!DOCTYPE svg PUBLIC "-//W3C//DTD SVG 1.1//EN" "http://www.w3.org/Graphics/SVG/1.1/DTD/svg11.dtd">
<svg version="1.1" id="Layer_1" xmlns="http://www.w3.org/2000/svg" xmlns:xlink="http://www.w3.org/1999/xlink" x="0px" y="0px"
	 width="139.678px" height="217.424px" viewBox="0 0 139.678 217.424" enable-background="new 0 0 139.678 217.424"
	 xml:space="preserve">
<path fill="#FFFFFF" stroke="#FFFFFF" stroke-miterlimit="10" d="M108.154,211.501c0,0-29.033-90.257,8.836-124.971
	c30.084-27.578,16.426-65.588-2.525-76.349C95.53-0.57,29.552-5.947,8.635,58.823c-19.14,59.265,29.612,69.462,41.452,73.152
	C88.588,143.967,108.154,211.501,108.154,211.501z"/>
<g>
	<line fill="#FFFFFF" stroke="#000000" stroke-width="3" stroke-miterlimit="10" x1="61" y1="50.5" x2="81" y2="50.5"/>
	<line fill="#FFFFFF" stroke="#000000" stroke-width="3" stroke-miterlimit="10" x1="61" y1="62.5" x2="81" y2="62.5"/>
	<line fill="#FFFFFF" stroke="#000000" stroke-width="3" stroke-miterlimit="10" x1="61" y1="72.5" x2="74" y2="72.5"/>
	<line fill="#FFFFFF" stroke="#000000" stroke-width="3" stroke-miterlimit="10" x1="38" y1="47.5" x2="49" y2="47.5"/>
	<line fill="#FFFFFF" stroke="#000000" stroke-width="3" stroke-miterlimit="10" x1="38" y1="58.5" x2="49" y2="58.5"/>
	<line fill="#FFFFFF" stroke="#000000" stroke-width="3" stroke-miterlimit="10" x1="38" y1="69.5" x2="49" y2="69.5"/>
	<line fill="#FFFFFF" stroke="#000000" stroke-width="3" stroke-miterlimit="10" x1="38" y1="79.5" x2="49" y2="79.5"/>
	<line fill="#FFFFFF" stroke="#000000" stroke-width="3" stroke-miterlimit="10" x1="38" y1="90.5" x2="49" y2="90.5"/>
	
		<rect x="42.5" y="37.5" fill="none" stroke="#000000" stroke-width="3" stroke-linejoin="round" stroke-miterlimit="10" width="49" height="63"/>
	<polygon fill="#FFFFFF" stroke="#000000" stroke-width="3" stroke-linejoin="round" stroke-miterlimit="10" points="
		100.133,47.659 77.404,77.568 73.131,91.573 86.248,83.527 104.652,58.95 108.737,53.356 	"/>
	<path fill="none" stroke="#000000" stroke-width="3" stroke-linejoin="round" stroke-miterlimit="10" d="M86.246,83.443
		c0,0-3.145-5.163-8.842-5.875"/>
	
		<line fill="none" stroke="#000000" stroke-width="3" stroke-linejoin="round" stroke-miterlimit="10" x1="100.191" y1="55.73" x2="82.389" y2="79.23"/>
	
		<line fill="none" stroke="#000000" stroke-width="3" stroke-linejoin="round" stroke-miterlimit="10" x1="96.037" y1="52.822" x2="104.405" y2="58.519"/>
</g>
</svg>
